<?xml version="1.0" encoding="UTF-8" standalone="no"?>
<!DOCTYPE svg PUBLIC "-//W3C//DTD SVG 1.1//EN"
 "http://www.w3.org/Graphics/SVG/1.1/DTD/svg11.dtd">
<!-- Generated by graphviz version 16.0.0 (20260814.1018)
 -->
<!-- Title: databases Pages: 1 -->
<svg width="527pt" height="164pt"
 viewBox="0.00 0.00 527.00 164.00" xmlns="http://www.w3.org/2000/svg" xmlns:xlink="http://www.w3.org/1999/xlink">
<g id="graph0" class="graph" transform="scale(1 1) rotate(0) translate(20.16 143.82)">
<title>databases</title>
<!-- cnpg -->
<g id="node1" class="node">
<title>cnpg</title>
<path fill="#1e3a24" stroke="#5dba5d" stroke-width="1.6" d="M111.18,-84.66C111.18,-84.66 12,-84.66 12,-84.66 6,-84.66 0,-78.66 0,-72.66 0,-72.66 0,-51 0,-51 0,-45 6,-39 12,-39 12,-39 111.18,-39 111.18,-39 117.18,-39 123.18,-45 123.18,-51 123.18,-51 123.18,-72.66 123.18,-72.66 123.18,-78.66 117.18,-84.66 111.18,-84.66"/>
<text xml:space="preserve" text-anchor="middle" x="61.59" y="-63.18" font-family="Helvetica,sans-Serif" font-size="12.00" fill="#e8e8e8">CloudNativePG</text>
<text xml:space="preserve" text-anchor="middle" x="61.59" y="-50.43" font-family="Helvetica,sans-Serif" font-size="12.00" fill="#e8e8e8">Postgres clusters</text>
</g>
<!-- apps -->
<g id="node2" class="node">
<title>apps</title>
<path fill="#2a2a2a" stroke="#5dba5d" d="M335.36,-123.66C335.36,-123.66 185.18,-123.66 185.18,-123.66 179.18,-123.66 173.18,-117.66 173.18,-111.66 173.18,-111.66 173.18,-90 173.18,-90 173.18,-84 179.18,-78 185.18,-78 185.18,-78 335.36,-78 335.36,-78 341.36,-78 347.36,-84 347.36,-90 347.36,-90 347.36,-111.66 347.36,-111.66 347.36,-117.66 341.36,-123.66 335.36,-123.66"/>
<text xml:space="preserve" text-anchor="middle" x="260.27" y="-102.18" font-family="Helvetica,sans-Serif" font-size="12.00" fill="#e8e8e8">git &#160;· &#160;CI &#160;· &#160;photos</text>
<text xml:space="preserve" text-anchor="middle" x="260.27" y="-89.43" font-family="Helvetica,sans-Serif" font-size="12.00" fill="#e8e8e8">whatever the factory needs</text>
</g>
<!-- cnpg&#45;&gt;apps -->
<g id="edge1" class="edge">
<title>cnpg&#45;&gt;apps</title>
<path fill="none" stroke="#c8c8c8" d="M123.74,-73.96C136.75,-76.54 150.78,-79.32 164.7,-82.08"/>
<polygon fill="#c8c8c8" stroke="#c8c8c8" points="164.06,-84.45 171.4,-83.41 165.01,-79.64 164.06,-84.45"/>
</g>
<!-- wal -->
<g id="node3" class="node">
<title>wal</title>
<path fill="#2a2a2a" stroke="#5dba5d" d="M317.36,-45.66C317.36,-45.66 203.18,-45.66 203.18,-45.66 197.18,-45.66 191.18,-39.66 191.18,-33.66 191.18,-33.66 191.18,-12 191.18,-12 191.18,-6 197.18,0 203.18,0 203.18,0 317.36,0 317.36,0 323.36,0 329.36,-6 329.36,-12 329.36,-12 329.36,-33.66 329.36,-33.66 329.36,-39.66 323.36,-45.66 317.36,-45.66"/>
<text xml:space="preserve" text-anchor="middle" x="260.27" y="-24.18" font-family="Helvetica,sans-Serif" font-size="12.00" fill="#e8e8e8">WAL + base backup</text>
<text xml:space="preserve" text-anchor="middle" x="260.27" y="-11.43" font-family="Helvetica,sans-Serif" font-size="12.00" fill="#e8e8e8">to Garage</text>
</g>
<!-- cnpg&#45;&gt;wal -->
<g id="edge2" class="edge">
<title>cnpg&#45;&gt;wal</title>
<path fill="none" stroke="#c8c8c8" d="M123.74,-49.7C142.39,-46.01 163.13,-41.89 182.67,-38.02"/>
<polygon fill="#c8c8c8" stroke="#c8c8c8" points="183.08,-40.44 189.47,-36.67 182.13,-35.63 183.08,-40.44"/>
</g>
<!-- garage -->
<g id="node4" class="node">
<title>garage</title>
<path fill="#2a2a2a" stroke="#5dba5d" d="M474.79,-45.66C474.79,-45.66 409.36,-45.66 409.36,-45.66 403.36,-45.66 397.36,-39.66 397.36,-33.66 397.36,-33.66 397.36,-12 397.36,-12 397.36,-6 403.36,0 409.36,0 409.36,0 474.79,0 474.79,0 480.79,0 486.79,-6 486.79,-12 486.79,-12 486.79,-33.66 486.79,-33.66 486.79,-39.66 480.79,-45.66 474.79,-45.66"/>
<text xml:space="preserve" text-anchor="middle" x="442.08" y="-24.18" font-family="Helvetica,sans-Serif" font-size="12.00" fill="#e8e8e8">S3 estate</text>
<text xml:space="preserve" text-anchor="middle" x="442.08" y="-11.43" font-family="Helvetica,sans-Serif" font-size="12.00" fill="#e8e8e8">three cities</text>
</g>
<!-- wal&#45;&gt;garage -->
<g id="edge3" class="edge">
<title>wal&#45;&gt;garage</title>
<path fill="none" stroke="#c8c8c8" d="M329.76,-22.83C349.3,-22.83 370.26,-22.83 388.68,-22.83"/>
<polygon fill="#c8c8c8" stroke="#c8c8c8" points="388.43,-25.28 395.43,-22.83 388.43,-20.38 388.43,-25.28"/>
</g>
</g>
</svg>
